<?xml version="1.0" standalone="no"?>
<!DOCTYPE svg PUBLIC "-//W3C//DTD SVG 20010904//EN"
 "http://www.w3.org/TR/2001/REC-SVG-20010904/DTD/svg10.dtd">
<svg version="1.0" xmlns="http://www.w3.org/2000/svg"
 width="875.000000pt" height="336.000000pt" viewBox="0 0 875.000000 336.000000"
 preserveAspectRatio="xMidYMid meet">

<g transform="translate(0.000000,336.000000) scale(0.100000,-0.100000)"
fill="#000000" stroke="none">
<path d="M1521 2525 c-142 -31 -280 -94 -388 -178 -414 -318 -460 -935 -99
-1314 178 -188 398 -283 655 -283 245 0 450 86 627 264 135 136 212 279 249
465 25 123 17 297 -20 411 -108 336 -347 557 -680 629 -110 24 -248 26 -344 6z
m441 -359 c12 -18 10 -32 -26 -160 -86 -303 -96 -339 -96 -347 0 -5 54 -9 120
-9 108 0 122 -2 141 -21 21 -21 19 -52 -5 -76 -31 -31 -624 -447 -644 -451
-26 -5 -52 13 -52 38 0 17 43 178 90 342 l23 76 76 27 c165 57 170 54 -79 55
-124 0 -230 4 -237 8 -6 4 -12 14 -14 22 -9 46 13 66 277 255 375 268 374 266
398 259 12 -4 24 -12 28 -18z"/>
<path d="M6178 1984 c-59 -18 -66 -29 -31 -46 l28 -13 3 -222 2 -222 -25 -17
c-20 -13 -23 -19 -14 -30 15 -18 169 -20 187 -2 17 17 15 25 -8 31 -19 5 -20
14 -20 136 0 119 2 131 19 141 29 15 67 12 85 -6 13 -12 16 -41 16 -154 0
-161 3 -166 92 -158 62 6 81 22 50 44 -21 14 -22 22 -22 150 0 152 -8 175 -66
194 -53 18 -129 -1 -161 -40 -10 -12 -12 5 -13 92 0 58 -3 113 -6 122 -8 20
-52 20 -116 0z"/>
<path d="M5333 1930 c-42 -14 -103 -85 -103 -122 0 -41 34 -103 72 -131 18
-14 62 -38 98 -54 81 -38 102 -60 98 -104 -9 -92 -163 -55 -200 48 -11 29 -16
33 -48 33 l-37 0 9 -57 c14 -100 22 -118 49 -115 44 5 53 4 114 -8 134 -27
245 37 245 142 0 60 -41 102 -148 153 -117 56 -150 107 -101 156 17 17 29 20
61 16 46 -6 70 -25 93 -73 13 -28 22 -34 47 -34 l31 0 -7 65 c-9 89 -13 96
-45 88 -14 -4 -33 -6 -41 -5 -99 9 -161 10 -187 2z"/>
<path d="M2937 1924 c-12 -13 -7 -34 8 -34 28 0 34 -38 34 -207 0 -191 -3
-213 -30 -213 -20 0 -23 -8 -13 -34 5 -14 30 -16 170 -16 97 0 173 4 187 11
14 6 29 25 34 44 13 42 1 115 -22 132 -25 18 -55 -1 -55 -35 -1 -51 -51 -92
-115 -92 l-35 0 2 198 c3 194 3 197 26 207 12 5 21 17 20 25 -3 12 -24 16
-104 18 -55 1 -103 0 -107 -4z"/>
<path d="M3487 1805 c-91 -32 -132 -107 -128 -230 3 -78 93 -155 180 -155 87
0 170 44 156 83 -6 14 -10 14 -43 0 -77 -32 -162 9 -162 78 l0 29 98 0 c63 0
102 4 110 12 18 18 15 92 -5 127 -21 36 -88 71 -135 71 -18 -1 -50 -7 -71 -15z
m105 -75 c12 -58 3 -70 -53 -70 -49 0 -49 0 -49 33 0 49 25 79 63 75 27 -3 32
-8 39 -38z"/>
<path d="M3898 1810 c-44 -13 -96 -49 -103 -70 -16 -50 29 -83 84 -64 28 10
41 48 22 67 -19 19 -12 27 27 27 55 0 61 -8 64 -85 2 -57 0 -69 -12 -67 -102
23 -186 0 -209 -56 -41 -98 80 -175 195 -127 32 13 38 13 57 0 26 -18 76 -19
112 -3 30 14 31 19 5 41 -18 15 -20 29 -20 146 0 112 -2 131 -19 153 -33 41
-132 60 -203 38z m98 -285 c1 -44 -8 -55 -48 -55 -32 0 -58 24 -58 54 0 33 20
47 65 44 39 -3 40 -4 41 -43z"/>
<path d="M4259 1805 c-26 -7 -52 -15 -58 -19 -18 -11 -13 -36 8 -36 27 0 31
-18 31 -157 0 -118 -1 -125 -21 -130 -12 -4 -18 -11 -15 -20 3 -8 6 -17 6 -19
0 -2 49 -4 109 -4 90 0 110 3 115 16 9 23 8 24 -22 24 -47 0 -52 14 -52 145 0
124 6 145 41 145 11 0 19 -9 21 -22 4 -28 51 -47 76 -32 9 6 23 22 30 37 16
33 -1 75 -34 83 -30 8 -87 -11 -109 -36 -23 -25 -35 -25 -35 0 0 16 -29 43
-42 39 -2 0 -24 -7 -49 -14z"/>
<path d="M4607 1803 c-44 -12 -57 -19 -55 -32 2 -9 13 -17 26 -19 12 -2 22
-10 22 -18 1 -8 1 -66 1 -129 0 -63 0 -122 -1 -130 0 -8 -9 -15 -20 -15 -23 0
-26 -10 -8 -28 7 -7 45 -12 99 -12 70 0 88 3 93 16 8 21 8 21 -14 27 -19 5
-20 14 -20 141 0 134 0 136 24 142 13 3 37 4 52 2 l29 -3 3 -149 c3 -167 6
-175 73 -176 38 0 99 17 99 29 0 3 -9 12 -19 18 -17 11 -20 27 -23 152 -3 138
-3 141 -31 168 -23 24 -36 28 -80 28 -37 -1 -64 -8 -90 -24 -30 -18 -37 -20
-37 -7 0 16 -30 37 -52 35 -7 -1 -39 -8 -71 -16z"/>
<path d="M5720 1802 c-59 -19 -80 -48 -38 -54 l23 -3 3 -209 c2 -190 1 -210
-15 -222 -33 -24 -2 -35 93 -32 72 2 89 6 92 19 2 10 -5 19 -17 22 -13 3 -22
17 -26 40 -9 47 -1 57 46 57 116 0 202 92 202 215 0 129 -93 205 -208 170 -42
-12 -51 -12 -69 1 -24 17 -18 17 -86 -4z m175 -52 c35 -13 55 -65 55 -142 0
-74 -24 -128 -63 -142 -50 -18 -57 1 -57 149 0 72 3 135 7 138 9 10 27 9 58
-3z"/>
<path d="M6746 1805 c-47 -17 -94 -59 -112 -102 -22 -52 -18 -143 9 -193 40
-77 143 -110 238 -79 39 13 79 46 79 65 0 20 -19 27 -36 13 -9 -7 -41 -13 -71
-13 -48 -1 -58 2 -79 27 -14 16 -24 41 -24 58 l0 29 98 0 c63 0 102 4 110 12
7 7 12 33 12 60 0 102 -111 163 -224 123z m101 -51 c3 -9 6 -32 7 -52 l1 -37
-52 -5 -53 -6 0 36 c0 49 24 80 61 80 18 0 32 -6 36 -16z"/>
<path d="M7100 1806 c-30 -6 -61 -15 -67 -19 -21 -13 -15 -35 10 -39 21 -3 22
-6 25 -141 2 -133 2 -139 -18 -144 -12 -3 -20 -12 -18 -22 3 -13 21 -16 112
-19 81 -2 112 1 118 10 13 22 9 28 -22 28 -19 0 -33 7 -40 19 -14 28 -13 244
2 259 20 20 46 14 50 -10 7 -52 99 -45 113 9 20 80 -71 109 -145 46 l-30 -25
-9 25 c-13 34 -18 36 -81 23z"/>
<path d="M7534 1810 c-91 -21 -144 -94 -144 -197 0 -146 115 -225 261 -182 45
14 82 49 74 72 -6 14 -11 14 -51 0 -82 -28 -154 9 -154 78 l0 29 99 0 c117 0
126 6 119 81 -9 95 -95 145 -204 119z m74 -49 c7 -4 14 -28 15 -52 l2 -44 -54
-3 -54 -3 6 41 c3 22 11 47 17 55 14 16 48 19 68 6z"/>
</g>
</svg>
