<?xml version="1.0" standalone="no"?>
<!DOCTYPE svg PUBLIC "-//W3C//DTD SVG 20010904//EN"
 "http://www.w3.org/TR/2001/REC-SVG-20010904/DTD/svg10.dtd">
<svg version="1.0" xmlns="http://www.w3.org/2000/svg"
 width="716.000000pt" height="203.000000pt" viewBox="0 0 716.000000 203.000000"
 preserveAspectRatio="xMidYMid meet">

<g transform="translate(0.000000,203.000000) scale(0.100000,-0.100000)"
fill="#000000" stroke="none">
<path d="M855 1964 c-87 -13 -193 -48 -288 -95 -406 -205 -591 -689 -427
-1116 45 -118 106 -210 205 -309 132 -134 278 -212 465 -250 129 -26 305 -16
430 25 376 122 630 467 630 854 0 303 -151 580 -408 751 -138 91 -283 136
-457 141 -66 2 -133 1 -150 -1z m389 -357 c14 -10 17 -22 13 -48 -5 -34 -70
-269 -107 -389 -11 -36 -20 -71 -20 -77 0 -8 40 -12 126 -15 111 -3 127 -5
140 -22 18 -25 9 -55 -24 -84 -56 -48 -617 -442 -630 -442 -26 0 -52 21 -52
43 0 12 11 60 24 107 14 47 39 135 57 197 l32 112 111 40 111 40 -222 0 c-122
1 -228 4 -237 7 -19 7 -22 63 -4 86 11 12 470 342 602 432 44 30 55 31 80 13z"/>
<path d="M5477 1416 c-65 -18 -76 -31 -40 -48 l28 -13 3 -210 c3 -226 0 -255
-24 -255 -9 0 -14 -7 -12 -17 3 -15 17 -18 87 -21 52 -2 88 1 97 9 19 16 18
26 -6 32 -19 5 -20 14 -20 140 0 149 -1 147 65 147 24 0 38 -6 45 -19 5 -11
10 -81 10 -156 l0 -135 26 -10 c37 -15 97 -12 120 5 19 14 19 14 -3 30 -22 15
-23 23 -23 142 0 93 -4 133 -16 158 -32 68 -133 72 -206 7 -21 -18 -21 -22
-18 100 1 48 -1 96 -5 108 -7 24 -36 25 -108 6z"/>
<path d="M4606 1350 c-77 -43 -102 -102 -71 -170 22 -48 52 -75 129 -112 97
-48 126 -74 126 -112 0 -43 -16 -56 -70 -56 -63 0 -105 30 -135 98 -11 26 -20
32 -44 32 -29 0 -31 -2 -31 -37 0 -21 6 -60 14 -88 10 -40 17 -49 32 -47 38 6
70 4 119 -7 105 -24 210 19 236 96 26 80 -15 139 -139 199 -100 48 -122 69
-122 111 0 43 35 68 86 60 43 -7 67 -27 89 -74 14 -28 21 -34 43 -31 33 4 38
26 22 103 -11 51 -13 55 -33 48 -12 -4 -31 -6 -42 -6 -11 1 -54 5 -95 8 -65 6
-80 4 -114 -15z"/>
<path d="M2227 1354 c-14 -14 -7 -34 12 -34 27 0 31 -25 31 -210 0 -185 -4
-210 -31 -210 -29 0 -25 -38 5 -46 13 -3 94 -4 180 -2 152 3 159 4 177 27 25
31 26 120 1 151 -23 28 -50 17 -58 -24 -10 -58 -43 -88 -102 -94 l-52 -5 2
204 3 204 23 3 c15 2 22 9 20 20 -3 14 -19 17 -104 20 -55 1 -103 0 -107 -4z"/>
<path d="M2766 1230 c-83 -42 -116 -96 -116 -193 0 -108 58 -173 165 -184 85
-9 189 39 166 76 -7 11 -15 11 -41 2 -54 -18 -95 -14 -130 15 -25 21 -30 33
-28 58 l3 31 95 3 c109 3 120 10 120 78 0 33 -7 48 -32 76 -55 59 -131 73
-202 38z m116 -65 c15 -55 4 -72 -49 -77 -27 -3 -50 -3 -53 -1 -2 2 -3 20 -2
41 4 48 28 74 66 70 23 -2 31 -9 38 -33z"/>
<path d="M3180 1235 c-52 -17 -100 -57 -100 -85 0 -40 67 -63 103 -36 18 14
24 56 7 56 -5 0 -10 7 -10 15 0 10 10 15 34 15 63 0 66 -5 66 -87 0 -67 -2
-74 -17 -68 -68 26 -162 9 -193 -35 -24 -33 -25 -58 -5 -96 29 -57 105 -77
185 -49 37 13 45 13 72 -1 34 -18 102 -14 122 6 8 8 6 15 -9 26 -18 13 -21 30
-25 147 -3 73 -9 139 -13 148 -22 47 -137 70 -217 44z m108 -282 c3 -41 2 -42
-31 -48 -47 -9 -77 8 -77 43 0 39 18 53 65 50 39 -3 40 -4 43 -45z"/>
<path d="M3715 1236 c-17 -7 -36 -20 -44 -29 -19 -23 -29 -21 -33 6 -4 28 -54
34 -112 14 -45 -15 -57 -34 -29 -44 30 -11 33 -23 33 -145 0 -126 -4 -148 -27
-148 -10 0 -13 -6 -9 -16 3 -9 6 -18 6 -20 0 -2 47 -4 104 -4 74 0 107 4 115
13 13 17 5 27 -24 27 -39 0 -45 18 -45 145 0 125 6 145 42 145 11 0 18 -7 18
-20 0 -12 10 -25 26 -32 34 -16 73 5 87 45 8 24 5 33 -14 53 -25 27 -50 30
-94 10z"/>
<path d="M3903 1234 c-67 -16 -84 -38 -38 -50 l25 -6 0 -139 c0 -127 -2 -139
-20 -149 -11 -6 -17 -16 -14 -25 5 -12 26 -15 99 -15 99 0 122 11 84 43 -17
15 -19 31 -19 141 0 140 4 149 67 144 l38 -3 3 -145 c2 -116 6 -148 19 -162
18 -21 60 -23 118 -7 37 11 38 12 20 25 -18 13 -21 31 -25 159 -5 142 -6 145
-33 172 -23 23 -36 28 -76 27 -28 0 -65 -9 -88 -21 l-39 -21 -10 22 c-11 27
-33 28 -111 10z"/>
<path d="M5160 1234 c-29 -8 -48 -10 -54 -4 -22 22 -145 0 -154 -27 -2 -7 8
-17 22 -23 l26 -10 0 -209 c0 -175 -2 -210 -15 -215 -8 -3 -12 -12 -9 -21 9
-22 179 -22 188 1 9 22 8 24 -9 24 -17 0 -35 39 -35 76 0 22 4 24 44 24 124 0
209 88 210 218 0 53 -5 68 -30 105 -46 64 -106 85 -184 61z m55 -75 c16 -16
21 -36 24 -104 3 -73 0 -89 -18 -119 -24 -38 -50 -51 -81 -41 -19 6 -20 15
-20 144 0 76 3 141 7 145 13 12 66 -3 88 -25z"/>
<path d="M6056 1243 c-35 -9 -93 -51 -117 -84 -25 -35 -36 -114 -25 -174 10
-51 68 -112 120 -126 50 -14 120 -7 169 17 65 31 58 76 -8 54 -78 -26 -155 13
-155 77 l0 33 100 0 c91 0 100 2 111 21 18 35 5 106 -25 138 -39 41 -110 59
-170 44z m64 -43 c21 -11 37 -85 22 -103 -7 -8 -28 -11 -56 -9 -45 4 -46 5
-46 38 0 24 8 43 25 59 27 28 29 29 55 15z"/>
<path d="M6544 1235 c-17 -8 -36 -21 -43 -29 -19 -22 -29 -20 -33 7 -2 17 -10
23 -38 25 -42 3 -112 -18 -118 -35 -2 -7 8 -17 22 -23 l26 -10 0 -136 c0 -129
-1 -136 -20 -141 -13 -3 -20 -12 -18 -22 3 -13 21 -16 112 -19 79 -2 112 1
117 10 11 17 1 28 -25 28 -41 0 -46 17 -46 145 0 81 4 125 12 133 16 16 48 15
48 -1 0 -20 33 -47 58 -47 24 0 62 44 62 71 0 24 -39 59 -64 58 -12 0 -35 -7
-52 -14z"/>
<path d="M6822 1240 c-52 -12 -99 -51 -123 -102 -18 -38 -21 -58 -17 -111 9
-108 58 -162 156 -174 83 -9 186 35 175 77 -4 17 -8 17 -39 4 -76 -32 -144 -6
-163 63 -12 40 -5 43 109 43 81 0 90 2 101 21 6 12 9 42 6 66 -6 56 -44 97
-102 112 -49 12 -56 12 -103 1z m92 -82 c14 -57 5 -68 -57 -68 l-54 0 7 42
c15 81 85 99 104 26z"/>
</g>
</svg>
